<svg width="1280" height="720" xmlns="http://www.w3.org/2000/svg" xmlns:xlink="http://www.w3.org/1999/xlink" overflow="hidden"><defs><clipPath id="clip0"><rect x="0" y="0" width="1280" height="720"/></clipPath></defs><g clip-path="url(#clip0)"><rect x="0" y="0" width="1280" height="720" fill="#FFFFFF"/><text font-family="Calibri,Calibri_MSFontService,sans-serif" font-weight="300" font-size="59" transform="translate(188.357 124)">Referencing DOM elements procedure</text><path d="M366.251 333.5 366.251 402.624 419.28 402.624 419.28 392.5 461.5 422 419.28 451.5 419.28 441.376 327.5 441.376 327.5 333.5Z" stroke="#FFFFFF" stroke-width="1.33333" stroke-miterlimit="8" fill="#C4D5EB" fill-rule="evenodd"/><path d="M304.5 217.671C304.5 204.874 314.874 194.5 327.671 194.5L479.329 194.5C492.126 194.5 502.5 204.874 502.5 217.671L502.5 310.329C502.5 323.126 492.126 333.5 479.329 333.5L327.671 333.5C314.874 333.5 304.5 323.126 304.5 310.329Z" stroke="#FFFFFF" stroke-width="1.33333" stroke-miterlimit="8" fill="#5B9BD5" fill-rule="evenodd"/><text fill="#FFFFFF" font-family="Calibri,Calibri_MSFontService,sans-serif" font-weight="400" font-size="16" transform="translate(387.944 268)">User</text><path d="M530.251 490.5 530.251 559.624 584.28 559.624 584.28 549.5 626.5 579 584.28 608.5 584.28 598.376 491.5 598.376 491.5 490.5Z" stroke="#FFFFFF" stroke-width="1.33333" stroke-miterlimit="8" fill="#EBF1E9" fill-rule="evenodd"/><path d="M468.5 374.671C468.5 361.874 478.874 351.5 491.671 351.5L644.329 351.5C657.126 351.5 667.5 361.874 667.5 374.671L667.5 467.329C667.5 480.126 657.126 490.5 644.329 490.5L491.671 490.5C478.874 490.5 468.5 480.126 468.5 467.329Z" stroke="#FFFFFF" stroke-width="1.33333" stroke-miterlimit="8" fill="#4DC58D" fill-rule="evenodd"/><text fill="#FFFFFF" font-family="Calibri,Calibri_MSFontService,sans-serif" font-weight="700" font-size="16" transform="translate(485.572 424)">document.querySelector<tspan fill="#000000" font-weight="400" x="-262.037" y="-64">•</tspan><tspan fill="#000000" font-weight="400" x="-250.037" y="-64">Commanding </tspan><tspan fill="#000000" font-weight="400" x="-281.577" y="-46">JavaScript to store </tspan><tspan fill="#000000" font-weight="400" x="-253.724" y="-29">a reference of </tspan><tspan fill="#000000" font-weight="400" x="-282.091" y="-11">DOM element in a </tspan><tspan fill="#000000" font-weight="400" x="-215.031" y="7">variable </tspan></text><path d="M633.5 530.671C633.5 517.874 643.874 507.5 656.671 507.5L809.329 507.5C822.126 507.5 832.5 517.874 832.5 530.671L832.5 623.329C832.5 636.126 822.126 646.5 809.329 646.5L656.671 646.5C643.874 646.5 633.5 636.126 633.5 623.329Z" stroke="#FFFFFF" stroke-width="1.33333" stroke-miterlimit="8" fill="#70AD47" fill-rule="evenodd"/><text fill="#FFFFFF" font-family="Calibri,Calibri_MSFontService,sans-serif" font-weight="400" font-size="16" transform="translate(678.408 581)">HTML document<tspan fill="#000000" x="-304.69" y="-66">•</tspan><tspan fill="#000000" x="-292.69" y="-66">Asking HTML to </tspan><tspan fill="#000000" x="-301.27" y="-48">store a reference </tspan><tspan fill="#000000" x="-300.216" y="-31">of its element by </tspan><tspan fill="#000000" x="-268.416" y="-13">the selector </tspan><tspan fill="#000000" x="-249.21" y="5">specified </tspan></text><path d="M687.199 412.93 686.013 392.006 706.937 390.82 702.003 396.347 804.488 487.839 794.619 498.894 692.134 407.402Z" fill="#000000" fill-rule="evenodd" fill-opacity="0.501961"/><text font-family="Arial,Arial_MSFontService,sans-serif" font-weight="400" font-size="16" transform="translate(767.348 440)">•<tspan font-family="Calibri,Calibri_MSFontService,sans-serif" x="30" y="0">Giving reference of the </tspan><tspan font-family="Calibri,Calibri_MSFontService,sans-serif" x="30" y="19">element  requested</tspan></text><path d="M511.199 261.052 510.013 240.128 530.937 238.942 526.003 244.47 628.488 335.961 618.619 347.016 516.134 255.525Z" fill="#000000" fill-rule="evenodd" fill-opacity="0.501961"/><text font-family="Arial,Arial_MSFontService,sans-serif" font-weight="400" font-size="16" transform="translate(550.182 258)">•<tspan font-family="Calibri,Calibri_MSFontService,sans-serif" x="30" y="0">Providing user the facility </tspan><tspan font-family="Calibri,Calibri_MSFontService,sans-serif" x="30" y="19">to manipulate DOM via </tspan><tspan font-family="Calibri,Calibri_MSFontService,sans-serif" x="30" y="38">different methods</tspan></text></g></svg>